<svg xmlns="http://www.w3.org/2000/svg" xmlns:oryx="http://oryx-editor.org" id="oryx_71D32CE6-BB9C-4378-9354-FC642391AC70" width="160" height="252" xmlns:xlink="http://www.w3.org/1999/xlink" xmlns:svg="http://www.w3.org/2000/svg"><defs/><g stroke="black" font-family="Verdana, sans-serif" font-size-adjust="none" font-style="normal" font-variant="normal" font-weight="normal" line-heigth="normal" font-size="12"><g class="stencils" transform="translate(1, -33)"><g class="me"/><g class="children"><g id="oryx_AC86253D-0A47-449A-867A-31096595C756"><g class="stencils" transform="translate(34, 58)"><g class="me"><g pointer-events="fill" oryx:minimumSize="50 40" id="oryx_AC86253D-0A47-449A-867A-31096595C756" title="Task">    <defs id="oryx_AC86253D-0A47-449A-867A-31096595C756_oryx_AC86253D-0A47-449A-867A-31096595C756_17">   <radialGradient id="oryx_AC86253D-0A47-449A-867A-31096595C756background" cx="10%" cy="10%" r="100%" fx="10%" fy="10%">    <stop offset="0%" stop-color="#ffffcc" stop-opacity="1" id="oryx_AC86253D-0A47-449A-867A-31096595C756_oryx_AC86253D-0A47-449A-867A-31096595C756_18"/>    <stop id="oryx_AC86253D-0A47-449A-867A-31096595C756fill_el" offset="100%" stop-color="#ffffcc" stop-opacity="1"/>   </radialGradient>  </defs>    <rect id="oryx_AC86253D-0A47-449A-867A-31096595C756text_frame" oryx:anchors="bottom top right left" x="1" y="1" width="94" height="79" rx="10" ry="10" stroke="none" stroke-width="0" fill="none"/>     <rect id="oryx_AC86253D-0A47-449A-867A-31096595C756callActivity" oryx:resize="vertical horizontal" oryx:anchors="bottom top right left" x="0" y="0" width="100" height="80" rx="10" ry="10" stroke="black" stroke-width="4" fill="none" display="none"/>  <rect id="oryx_AC86253D-0A47-449A-867A-31096595C756bg_frame" oryx:resize="vertical horizontal" x="0" y="0" width="100" height="80" rx="10" ry="10" stroke="black" stroke-width="1" fill="url(#oryx_AC86253D-0A47-449A-867A-31096595C756background) #ffffcc"/>   <text font-size="12" id="oryx_AC86253D-0A47-449A-867A-31096595C756text_name" x="50" y="40" oryx:align="middle center" oryx:fittoelem="text_frame" stroke="black" stroke-width="0pt" letter-spacing="-0.01px" text-anchor="middle" transform="rotate(0 50 40)" visibility="inherit" oryx:fontSize="12"/>     <g id="oryx_AC86253D-0A47-449A-867A-31096595C756manualTask" transform="scale(0.7,0.7) translate(8,8)" display="none">      <path oryx:anchors="top left" id="oryx_AC86253D-0A47-449A-867A-31096595C756hand" style="opacity:1;fill:none;fill-opacity:1;stroke:#000000;stroke-width:1" d="M0.5,3.751l4.083-3.25c0,0,11.166,0.083,12.083,0.083s-2.417,2.917-1.5,2.917     s11.667,0,12.584,0c1.166,1.708-0.168,3.167-0.834,3.667s0.875,1.917-1,4.417c-0.75,0.25,0.75,1.875-1.333,3.333     c-1.167,0.583,0.583,1.542-1.25,2.833c-1.167,0-20.833,0.083-20.833,0.083l-2-1.333V3.751z"/>   <path oryx:anchors="top left" id="oryx_AC86253D-0A47-449A-867A-31096595C756finger" style="opacity:1;fill:none; stroke:#000000; stroke-width:2" d="M 13.5 7 L 27 7"/>   <path oryx:anchors="top left" id="oryx_AC86253D-0A47-449A-867A-31096595C756finger1" style="opacity:1;fill:none; stroke:#000000; stroke-width:2" d="M 13.5 11 L 26 11"/>   <path oryx:anchors="top left" id="oryx_AC86253D-0A47-449A-867A-31096595C756finger2" style="opacity:1;fill:none; stroke:#000000; stroke-width:1.5" d="M 14 14.5 L 25 14.5"/>   <path oryx:anchors="top left" id="oryx_AC86253D-0A47-449A-867A-31096595C756thumb" style="opacity:1;fill:none; stroke:#000000; stroke-width:1.5" d="M 8.2 3.1 L 15 3.1"/>  </g>    <g id="oryx_AC86253D-0A47-449A-867A-31096595C756businessRuleTask" transform="scale(0.7,0.7) translate(8,8)" display="none">   <rect oryx:anchors="top left" id="oryx_AC86253D-0A47-449A-867A-31096595C756top" x="0" y="0" width="22" height="4" style="opacity:1;fill:#B3B1B3;fill-opacity:1;stroke:#000000"/>   <rect oryx:anchors="top left" id="oryx_AC86253D-0A47-449A-867A-31096595C756rect" x="0" y="4" style="opacity:1;fill:none;stroke:#000000" width="22" height="12"/>   <path oryx:anchors="top left" id="oryx_AC86253D-0A47-449A-867A-31096595C756row" style="opacity:1;fill:none;stroke:#000000" d="M 0 10 L 22 10"/>   <path oryx:anchors="top left" id="oryx_AC86253D-0A47-449A-867A-31096595C756col" style="opacity:1; fill:none; stroke:#000000" d="M 7 4 L 7 16"/>  </g>    <g id="oryx_AC86253D-0A47-449A-867A-31096595C756scriptTask" transform="scale(0.7,0.7) translate(8,8)" display="none">   <path oryx:anchors="top left" id="oryx_AC86253D-0A47-449A-867A-31096595C756paper" style="opacity:1;fill:none;stroke:#000000" d="M6.402,0.5h14.5c0,0-5.833,2.833-5.833,5.583s4.417,6,4.417,9.167    s-4.167,5.083-4.167,5.083H0.235c0,0,5-2.667,5-5s-4.583-6.75-4.583-9.25S6.402,0.5,6.402,0.5z"/>   <path oryx:anchors="top left" id="oryx_AC86253D-0A47-449A-867A-31096595C756line1" style="opacity:1;fill:none;stroke:#000000;stroke-width:1.5" d="M 3.5 4.5 L 13.5 4.5"/>   <path oryx:anchors="top left" id="oryx_AC86253D-0A47-449A-867A-31096595C756line2" style="opacity:1;fill:none;stroke:#000000;stroke-width:1.5" d="M 3.8 8.5 L 13.8 8.5"/>   <path oryx:anchors="top left" id="oryx_AC86253D-0A47-449A-867A-31096595C756line3" style="opacity:1;fill:none;stroke:#000000;stroke-width:1.5" d="M 6.3 12.5 L 16.3 12.5"/>   <path oryx:anchors="top left" id="oryx_AC86253D-0A47-449A-867A-31096595C756line4" style="opacity:1;fill:none;stroke:#000000;stroke-width:1.5" d="M 6.5 16.5 L 16.5 16.5"/>  </g>    <g id="oryx_AC86253D-0A47-449A-867A-31096595C756userTask" transform="scale(0.7,0.7) translate(8,8)" display="none">   <path oryx:anchors="top left" style="opacity:1;fill:#F4F6F7;stroke:#000000" d="M0.585,24.167h24.083v-7.833c0,0-2.333-3.917-7.083-5.167h-9.25    c-4.417,1.333-7.833,5.75-7.833,5.75L0.585,24.167z" id="oryx_AC86253D-0A47-449A-867A-31096595C756_oryx_AC86253D-0A47-449A-867A-31096595C756_19"/>   <path oryx:anchors="top left" style="opacity:1;fill:none;stroke:#000000" d="M 6 20 L 6 24" id="oryx_AC86253D-0A47-449A-867A-31096595C756_oryx_AC86253D-0A47-449A-867A-31096595C756_20"/>   <path oryx:anchors="top left" style="opacity:1;fill:none;stroke:#000000" d="M 20 20 L 20 24" id="oryx_AC86253D-0A47-449A-867A-31096595C756_oryx_AC86253D-0A47-449A-867A-31096595C756_21"/>   <circle oryx:anchors="top left" fill="#000000" stroke="#000000" cx="13.002" cy="5.916" r="5.417" id="oryx_AC86253D-0A47-449A-867A-31096595C756_oryx_AC86253D-0A47-449A-867A-31096595C756_22"/>   <path oryx:anchors="top left" style="opacity:1;fill:#F0EFF0;stroke:#000000" d="M8.043,7.083c0,0,2.814-2.426,5.376-1.807s4.624-0.693,4.624-0.693    c0.25,1.688,0.042,3.75-1.458,5.584c0,0,1.083,0.75,1.083,1.5s0.125,1.875-1,3s-5.5,1.25-6.75,0S8.668,12.834,8.668,12    s0.583-1.25,1.25-1.917C8.835,9.5,7.419,7.708,8.043,7.083z" id="oryx_AC86253D-0A47-449A-867A-31096595C756_oryx_AC86253D-0A47-449A-867A-31096595C756_23"/>  </g>    <g id="oryx_AC86253D-0A47-449A-867A-31096595C756serviceTask" transform="scale(0.7,0.7) translate(8,8)" display="none">   <polygon oryx:anchors="top left" id="oryx_AC86253D-0A47-449A-867A-31096595C756teethForeground" style="opacity:1;fill:#ffffff;stroke:#000000" points="15.392,5.064 17.954,2.502 20.347,4.895 17.786,7.455     18.729,9.732 22.353,9.732 22.353,13.115 18.731,13.115 17.788,15.392 20.351,17.955 17.958,20.347 15.397,17.786 13.12,18.729     13.12,22.353 9.737,22.353 9.737,18.731 7.46,17.788 4.897,20.35 2.506,17.958 5.066,15.397 4.124,13.12 0.5,13.12 0.5,9.737     4.121,9.737 5.065,7.461 2.503,4.898 4.895,2.506 7.455,5.066 9.732,4.125 9.732,0.5 13.116,0.5 13.116,4.121 "/>   <circle oryx:anchors="top left" id="oryx_AC86253D-0A47-449A-867A-31096595C756ringForeground" style="opacity:1;fill:none;stroke:#000000" cx="11.427" cy="11.426" r="3.714"/>   <polygon oryx:anchors="top left" id="oryx_AC86253D-0A47-449A-867A-31096595C756teethBackground" style="opacity:1;fill:#ffffff;stroke:#000000" points="21.392,11.064 23.954,8.502 26.347,10.895 23.786,13.455     24.729,15.732 28.353,15.732 28.353,19.115 24.731,19.115 23.788,21.392 26.351,23.955 23.958,26.347 21.397,23.786 19.12,24.729     19.12,28.353 15.737,28.353 15.737,24.731 13.46,23.788 10.897,26.35 8.506,23.958 11.066,21.397 10.124,19.12 6.5,19.12     6.5,15.737 10.121,15.737 11.065,13.461 8.503,10.898 10.895,8.506 13.455,11.066 15.732,10.125 15.732,6.5 19.116,6.5     19.116,10.121 "/>   <circle oryx:anchors="top left" id="oryx_AC86253D-0A47-449A-867A-31096595C756ringBackground" style="opacity:1;fill:none;stroke:#000000" cx="17.427" cy="17.426" r="3.714"/>  </g>    <g id="oryx_AC86253D-0A47-449A-867A-31096595C756sendTask" display="none">   <path oryx:anchors="left top" stroke="white" fill="black" stroke-width="1" d="M8,11 L8,21 L24,21 L24,11 L16,17z" id="oryx_AC86253D-0A47-449A-867A-31096595C756_oryx_AC86253D-0A47-449A-867A-31096595C756_24"/>   <path oryx:anchors="left top" stroke="white" fill="black" stroke-width="1" d="M7,10 L16,17 L25 10z" id="oryx_AC86253D-0A47-449A-867A-31096595C756_oryx_AC86253D-0A47-449A-867A-31096595C756_25"/>  </g>    <g id="oryx_AC86253D-0A47-449A-867A-31096595C756receiveTask" display="none">   <path oryx:anchors="left top" stroke="black" fill="none" stroke-width="1" d="M8,11 L8,21 L24,21 L24,11z M8,11 L16,17 L24,11" id="oryx_AC86253D-0A47-449A-867A-31096595C756_oryx_AC86253D-0A47-449A-867A-31096595C756_26"/>  </g>    <g id="oryx_AC86253D-0A47-449A-867A-31096595C756none" display="inherit"/>  <g id="oryx_AC86253D-0A47-449A-867A-31096595C756loop" display="none">       <path oryx:anchors="bottom" style="opacity:1;fill:none;fill-opacity:1;stroke:#000000;stroke-width:1.5;stroke-linecap:round;stroke-linejoin:round;stroke-miterlimit:2.0999999;stroke-dasharray:none;stroke-opacity:1" id="oryx_AC86253D-0A47-449A-867A-31096595C756path2396" d="M 47.608384,75.188343 L 47.608384,78.188343 L 44.608384,78.188343 M 47.608384,78.188343 A 4.875,4.875 0 1 1 51.639336,78.189378"/>     </g>      <g id="oryx_AC86253D-0A47-449A-867A-31096595C756parallel" display="none">   <path oryx:anchors="bottom" fill="none" stroke="black" d="M46 70 v8 M50 70 v8 M54 70 v8" stroke-width="2" id="oryx_AC86253D-0A47-449A-867A-31096595C756_oryx_AC86253D-0A47-449A-867A-31096595C756_27"/>  </g>  <g id="oryx_AC86253D-0A47-449A-867A-31096595C756sequential" display="none">   <path oryx:anchors="bottom" fill="none" stroke="#000000" stroke-width="2" d="M46,76h10M46,72h10 M46,68h10" id="oryx_AC86253D-0A47-449A-867A-31096595C756_oryx_AC86253D-0A47-449A-867A-31096595C756_28"/>  </g>     <g id="oryx_AC86253D-0A47-449A-867A-31096595C756compensation" display="none">   <path oryx:anchors="bottom" fill="none" stroke="black" d="M 62 74 L 66 70 L 66 78 L 62 74 L 62 70 L 58 74 L 62 78 L 62 74" stroke-width="1" id="oryx_AC86253D-0A47-449A-867A-31096595C756_oryx_AC86253D-0A47-449A-867A-31096595C756_29"/>  </g>   </g></g><g class="children" style="overflow:hidden"/><g class="edge"/></g><g class="controls"><g class="dockers"/><g class="magnets" transform="translate(34, 58)"><g pointer-events="all" display="none" transform="translate(-7, 12)"><circle cx="8" cy="8" r="4" stroke="none" fill="red" fill-opacity="0.3"/></g><g pointer-events="all" display="none" transform="translate(-7, 32)"><circle cx="8" cy="8" r="4" stroke="none" fill="red" fill-opacity="0.3"/></g><g pointer-events="all" display="none" transform="translate(-7, 52)"><circle cx="8" cy="8" r="4" stroke="none" fill="red" fill-opacity="0.3"/></g><g pointer-events="all" display="none" transform="translate(17, 71)"><circle cx="8" cy="8" r="4" stroke="none" fill="red" fill-opacity="0.3"/></g><g pointer-events="all" display="none" transform="translate(42, 71)"><circle cx="8" cy="8" r="4" stroke="none" fill="red" fill-opacity="0.3"/></g><g pointer-events="all" display="none" transform="translate(67, 71)"><circle cx="8" cy="8" r="4" stroke="none" fill="red" fill-opacity="0.3"/></g><g pointer-events="all" display="none" transform="translate(91, 12)"><circle cx="8" cy="8" r="4" stroke="none" fill="red" fill-opacity="0.3"/></g><g pointer-events="all" display="none" transform="translate(91, 32)"><circle cx="8" cy="8" r="4" stroke="none" fill="red" fill-opacity="0.3"/></g><g pointer-events="all" display="none" transform="translate(91, 52)"><circle cx="8" cy="8" r="4" stroke="none" fill="red" fill-opacity="0.3"/></g><g pointer-events="all" display="none" transform="translate(17, -7)"><circle cx="8" cy="8" r="4" stroke="none" fill="red" fill-opacity="0.3"/></g><g pointer-events="all" display="none" transform="translate(42, -7)"><circle cx="8" cy="8" r="4" stroke="none" fill="red" fill-opacity="0.3"/></g><g pointer-events="all" display="none" transform="translate(67, -7)"><circle cx="8" cy="8" r="4" stroke="none" fill="red" fill-opacity="0.3"/></g><g pointer-events="all" display="none" transform="translate(42, 32)"><circle cx="8" cy="8" r="4" stroke="none" fill="red" fill-opacity="0.3"/></g></g></g></g><g id="oryx_43ADD394-DEA8-4326-A997-08FA6B136599"><g class="stencils" transform="translate(28, 176)"><g class="me"><g pointer-events="fill" oryx:minimumSize="80 60" id="oryx_43ADD394-DEA8-4326-A997-08FA6B136599" title="Collapsed Event-Subprocess">     <defs id="oryx_43ADD394-DEA8-4326-A997-08FA6B136599_oryx_43ADD394-DEA8-4326-A997-08FA6B136599_9">    <radialGradient id="oryx_43ADD394-DEA8-4326-A997-08FA6B136599background" cx="10%" cy="10%" r="100%" fx="10%" fy="10%">     <stop offset="0%" stop-color="#ffffff" stop-opacity="1" id="oryx_43ADD394-DEA8-4326-A997-08FA6B136599_oryx_43ADD394-DEA8-4326-A997-08FA6B136599_10"/>     <stop id="oryx_43ADD394-DEA8-4326-A997-08FA6B136599fill_el" offset="100%" stop-color="#ffffff" stop-opacity="1"/>    </radialGradient>   </defs>      <rect id="oryx_43ADD394-DEA8-4326-A997-08FA6B136599text_frame" oryx:anchors="bottom top right left" x="1" y="1" width="94" height="79" rx="10" ry="10" stroke="none" stroke-width="0" fill="none"/>      <rect id="oryx_43ADD394-DEA8-4326-A997-08FA6B136599bg_frame" oryx:anchors="bottom top right left" oryx:resize="vertical horizontal" x="0" y="0" width="100" height="80" rx="10" ry="10" stroke="black" stroke-width="1" stroke-dasharray="2,2,2" fill="url(#oryx_43ADD394-DEA8-4326-A997-08FA6B136599background) white"/>      <text font-size="12" id="oryx_43ADD394-DEA8-4326-A997-08FA6B136599text_name" x="50" y="40" oryx:align="middle center" oryx:fittoelem="text_frame" stroke="black" stroke-width="0pt" letter-spacing="-0.01px" text-anchor="middle" transform="rotate(0 50 40)" visibility="inherit" oryx:fontSize="12"/>       <g transform="scale(0.8,0.8) translate(5,5)" id="oryx_43ADD394-DEA8-4326-A997-08FA6B136599_oryx_43ADD394-DEA8-4326-A997-08FA6B136599_11">     undefined   <g id="oryx_43ADD394-DEA8-4326-A997-08FA6B136599_oryx_43ADD394-DEA8-4326-A997-08FA6B136599_12">    <circle id="oryx_43ADD394-DEA8-4326-A997-08FA6B136599frame" oryx:anchors="top left" cx="16" cy="16" r="15" stroke="black" fill="none" stroke-width="1" display="inherit"/>        <circle oryx:anchors="top left" cx="16" cy="16" r="15" stroke="black" fill="none" stroke-width="1" style="stroke-dasharray: 5.5, 3" id="oryx_43ADD394-DEA8-4326-A997-08FA6B136599_oryx_43ADD394-DEA8-4326-A997-08FA6B136599_13"/>   </g>      undefined   <g id="oryx_43ADD394-DEA8-4326-A997-08FA6B136599message" display="inherit">           <path oryx:anchors="top left" stroke="black" fill="none" stroke-width="1" d="M8,11 L8,21 L24,21 L24,11z M8,11 L16,17 L24,11" id="oryx_43ADD394-DEA8-4326-A997-08FA6B136599_oryx_43ADD394-DEA8-4326-A997-08FA6B136599_14"/>   </g>       undefined   <g id="oryx_43ADD394-DEA8-4326-A997-08FA6B136599timer" display="none">       <path oryx:anchors="top left" d=" M 16 6 L 16 9         M 21 7 L 19.5 10         M 25 11 L 22 12.5         M 26 16 L 23 16         M 25 21 L 22 19.5         M 21 25 L 19.5 22         M 16 26 L 16 23         M 11 25 L 12.5 22         M 7 21 L 10 19.5         M 6 16 L 9 16         M 7 11 L 10 12.5         M 11 7 L 12.5 10         M 18 9 L 16 16 L 20 16" fill="none" stroke="black" id="oryx_43ADD394-DEA8-4326-A997-08FA6B136599_oryx_43ADD394-DEA8-4326-A997-08FA6B136599_15"/>   </g>       undefined   <g id="oryx_43ADD394-DEA8-4326-A997-08FA6B136599escalation" display="none">    <path oryx:anchors="top left" d="M 16,8.75 L22,23.75 L16,17 L10,23.75z " id="oryx_43ADD394-DEA8-4326-A997-08FA6B136599path9" style="fill:none;stroke:#000000;stroke-width:1"/>   </g>       undefined   <g id="oryx_43ADD394-DEA8-4326-A997-08FA6B136599conditional" display="none">    <rect oryx:anchors="top left" x="8" y="8" width="16" height="16" stroke="black" stroke-width="1" fill="none" id="oryx_43ADD394-DEA8-4326-A997-08FA6B136599_oryx_43ADD394-DEA8-4326-A997-08FA6B136599_16"/>       <path oryx:anchors="top left" d=" M 10 10 L 22 10         M 10 14 L 22 14         M 10 18 L 22 18         M 10 22 L 22 22" fill="none" stroke="black" id="oryx_43ADD394-DEA8-4326-A997-08FA6B136599_oryx_43ADD394-DEA8-4326-A997-08FA6B136599_17"/>   </g>      undefined   <g id="oryx_43ADD394-DEA8-4326-A997-08FA6B136599error" display="none">       <circle oryx:anchors="top left" cx="16" cy="16" r="15" stroke="black" fill="none" stroke-width="1" id="oryx_43ADD394-DEA8-4326-A997-08FA6B136599_oryx_43ADD394-DEA8-4326-A997-08FA6B136599_18"/>       <path oryx:anchors="top left" style="fill:none;stroke:#000000;stroke-width:1.5;stroke-linecap:butt;stroke-linejoin:miter;stroke-miterlimit:10" d="M 22.820839,11.171502 L 19.36734,24.58992 L 13.54138,14.281819 L 9.3386512,20.071607 L 13.048949,6.8323057 L 18.996148,16.132659 L 22.820839,11.171502 z" id="oryx_43ADD394-DEA8-4326-A997-08FA6B136599errorPolygon"/>   </g>       undefined   <g id="oryx_43ADD394-DEA8-4326-A997-08FA6B136599compensationStart" display="none">    <circle oryx:anchors="top left" cx="16" cy="16" r="15" stroke="black" fill="none" stroke-width="1" id="oryx_43ADD394-DEA8-4326-A997-08FA6B136599_oryx_43ADD394-DEA8-4326-A997-08FA6B136599_19"/>       <polygon oryx:anchors="top left" stroke="black" fill="none" stroke-width="1.4" points="15,9 15,23 8,16" stroke-linecap="butt" stroke-linejoin="miter" stroke-miterlimit="10" id="oryx_43ADD394-DEA8-4326-A997-08FA6B136599_oryx_43ADD394-DEA8-4326-A997-08FA6B136599_20"/>       <polygon oryx:anchors="top left" stroke="black" fill="none" stroke-width="1.4" points="22,9 22,23 15,16" stroke-linecap="butt" stroke-linejoin="miter" stroke-miterlimit="10" id="oryx_43ADD394-DEA8-4326-A997-08FA6B136599_oryx_43ADD394-DEA8-4326-A997-08FA6B136599_21"/>   </g>      undefined   <g id="oryx_43ADD394-DEA8-4326-A997-08FA6B136599signal" display="none">    <path oryx:anchors="top left" d="M 8.7124971,21.247342 L 23.333334,21.247342 L 16.022915,8.5759512 L 8.7124971,21.247342 z" id="oryx_43ADD394-DEA8-4326-A997-08FA6B136599triangle" style="fill:none;stroke:#000000;stroke-width:1.4;stroke-miterlimit:4;stroke-dasharray:none"/>   </g>      undefined   <g id="oryx_43ADD394-DEA8-4326-A997-08FA6B136599multiple" display="none">    <path oryx:anchors="top left" style="fill:none;     fill-opacity:1;     stroke:#000000;     stroke-width:1.4;     stroke-linejoin:bevel;     stroke-opacity:1" d="M 20.834856,22.874369 L 10.762008,22.873529 L 7.650126,13.293421 L 15.799725,7.3734296 L 23.948336,13.294781 L 20.834856,22.874369 z" id="oryx_43ADD394-DEA8-4326-A997-08FA6B136599middlepolygon"/>   </g>      undefined   <g id="oryx_43ADD394-DEA8-4326-A997-08FA6B136599multipleParallel" display="none">    <path oryx:anchors="top left" d="M 6.75,13 L6.75,19 L13,19 L13,25.75 L19,25.75 L19,19 L25.75,19 L25.75,13 L19,13 L19,6.75 L13,6.75 L13,13z" id="oryx_43ADD394-DEA8-4326-A997-08FA6B136599path9" style="fill:none;stroke:#000000;stroke-width:1"/>   </g>    </g>      <a id="oryx_43ADD394-DEA8-4326-A997-08FA6B136599u" target="_blank" xlink:href="">    <g id="oryx_43ADD394-DEA8-4326-A997-08FA6B136599b" oryx:anchors="bottom">         <rect oryx:anchors="bottom" x="44" y="66" width="14" height="14" fill="none" stroke="black" stroke-width="1" id="oryx_43ADD394-DEA8-4326-A997-08FA6B136599_oryx_43ADD394-DEA8-4326-A997-08FA6B136599_22"/>    <path oryx:anchors="bottom" fill="none" stroke="black" d="M51 68 v10 M 46 73 h10" stroke-width="1" id="oryx_43ADD394-DEA8-4326-A997-08FA6B136599_oryx_43ADD394-DEA8-4326-A997-08FA6B136599_23"/>      </g>  </a>  <g id="oryx_43ADD394-DEA8-4326-A997-08FA6B136599none" display="inherit"/>  <g id="oryx_43ADD394-DEA8-4326-A997-08FA6B136599loop" display="none">   <path oryx:anchors="bottom" style="opacity:1;fill:none;fill-opacity:1;stroke:#000000;stroke-width:1.5;stroke-linecap:round;stroke-linejoin:round;stroke-miterlimit:2.0999999;stroke-dasharray:none;stroke-opacity:1" id="oryx_43ADD394-DEA8-4326-A997-08FA6B136599path2396" d="M 50.5,72 L 50.5,75 L 47.5,75 M 50.5,75 A 4.875,4.875 0 1 1 54.5,75" transform="translate(-14.5,0)"/>  </g>    <g id="oryx_43ADD394-DEA8-4326-A997-08FA6B136599parallel" display="none">   <path oryx:anchors="bottom" fill="none" stroke="black" d="M47 65 v10 M51 65 v10 M55 65 v10" stroke-width="2" transform="translate(-14 0)" id="oryx_43ADD394-DEA8-4326-A997-08FA6B136599_oryx_43ADD394-DEA8-4326-A997-08FA6B136599_24"/>  </g>      <g id="oryx_43ADD394-DEA8-4326-A997-08FA6B136599adhoc" display="none">   <text oryx:anchors="bottom" x="61" y="77" font-size="20" transform="rotate(0 61 77)" id="oryx_43ADD394-DEA8-4326-A997-08FA6B136599_oryx_43ADD394-DEA8-4326-A997-08FA6B136599_25" stroke-width="0pt" letter-spacing="-0.01px" text-anchor="start" visibility="inherit" oryx:fontSize="20"><tspan x="61" y="77" dy="0">~</tspan></text>  </g>  <g id="oryx_43ADD394-DEA8-4326-A997-08FA6B136599compensation" display="none">   <path oryx:anchors="bottom" fill="none" stroke="black" d="M 51 70 L 56 65 L 56 75z M45.7 70 L50.7 75 L 50.7 65z" stroke-width="1" transform="translate(-28,0)" id="oryx_43ADD394-DEA8-4326-A997-08FA6B136599_oryx_43ADD394-DEA8-4326-A997-08FA6B136599_26"/>  </g>   </g></g><g class="children" style="overflow:hidden"/><g class="edge"/></g><g class="controls"><g class="dockers"/><g class="magnets" transform="translate(28, 176)"><g pointer-events="all" display="none" transform="translate(-8, 32)"><circle cx="8" cy="8" r="4" stroke="none" fill="red" fill-opacity="0.3"/></g><g pointer-events="all" display="none" transform="translate(42, 72)"><circle cx="8" cy="8" r="4" stroke="none" fill="red" fill-opacity="0.3"/></g><g pointer-events="all" display="none" transform="translate(92, 32)"><circle cx="8" cy="8" r="4" stroke="none" fill="red" fill-opacity="0.3"/></g><g pointer-events="all" display="none" transform="translate(42, -8)"><circle cx="8" cy="8" r="4" stroke="none" fill="red" fill-opacity="0.3"/></g><g pointer-events="all" display="none" transform="translate(42, 32)"><circle cx="8" cy="8" r="4" stroke="none" fill="red" fill-opacity="0.3"/></g></g></g></g></g><g class="edge"/></g></g></svg>